%TF.GenerationSoftware,KiCad,Pcbnew,9.0.6*%
%TF.CreationDate,2026-03-31T16:09:58+03:00*%
%TF.ProjectId,schematic editor,73636865-6d61-4746-9963-20656469746f,rev?*%
%TF.SameCoordinates,Original*%
%TF.FileFunction,Copper,L1,Top*%
%TF.FilePolarity,Positive*%
%FSLAX46Y46*%
G04 Gerber Fmt 4.6, Leading zero omitted, Abs format (unit mm)*
G04 Created by KiCad (PCBNEW 9.0.6) date 2026-03-31 16:09:58*
%MOMM*%
%LPD*%
G01*
G04 APERTURE LIST*
G04 Aperture macros list*
%AMRoundRect*
0 Rectangle with rounded corners*
0 $1 Rounding radius*
0 $2 $3 $4 $5 $6 $7 $8 $9 X,Y pos of 4 corners*
0 Add a 4 corners polygon primitive as box body*
4,1,4,$2,$3,$4,$5,$6,$7,$8,$9,$2,$3,0*
0 Add four circle primitives for the rounded corners*
1,1,$1+$1,$2,$3*
1,1,$1+$1,$4,$5*
1,1,$1+$1,$6,$7*
1,1,$1+$1,$8,$9*
0 Add four rect primitives between the rounded corners*
20,1,$1+$1,$2,$3,$4,$5,0*
20,1,$1+$1,$4,$5,$6,$7,0*
20,1,$1+$1,$6,$7,$8,$9,0*
20,1,$1+$1,$8,$9,$2,$3,0*%
G04 Aperture macros list end*
%TA.AperFunction,ComponentPad*%
%ADD10C,2.200000*%
%TD*%
%TA.AperFunction,ComponentPad*%
%ADD11RoundRect,0.250000X-0.550000X-0.550000X0.550000X-0.550000X0.550000X0.550000X-0.550000X0.550000X0*%
%TD*%
%TA.AperFunction,ComponentPad*%
%ADD12C,1.600000*%
%TD*%
%TA.AperFunction,ComponentPad*%
%ADD13R,1.700000X1.700000*%
%TD*%
%TA.AperFunction,ComponentPad*%
%ADD14C,1.700000*%
%TD*%
%TA.AperFunction,ComponentPad*%
%ADD15C,1.500000*%
%TD*%
%TA.AperFunction,ComponentPad*%
%ADD16R,2.000000X2.000000*%
%TD*%
%TA.AperFunction,ComponentPad*%
%ADD17C,2.000000*%
%TD*%
%TA.AperFunction,ComponentPad*%
%ADD18R,3.200000X2.000000*%
%TD*%
%TA.AperFunction,SMDPad,CuDef*%
%ADD19R,1.600000X0.850000*%
%TD*%
%TA.AperFunction,ViaPad*%
%ADD20C,0.600000*%
%TD*%
%TA.AperFunction,Conductor*%
%ADD21C,0.250000*%
%TD*%
G04 APERTURE END LIST*
D10*
%TO.P,SW7,1,1*%
%TO.N,/COL0*%
X175291000Y-54870000D03*
%TO.P,SW7,2,2*%
%TO.N,/COL1*%
X168941000Y-57410000D03*
%TD*%
%TO.P,SW1,1,1*%
%TO.N,/ROW2*%
X160201000Y-39780000D03*
%TO.P,SW1,2,2*%
X153851000Y-42320000D03*
%TD*%
%TO.P,SW6,1,1*%
%TO.N,/ROW0*%
X175291000Y-39780000D03*
%TO.P,SW6,2,2*%
X168941000Y-42320000D03*
%TD*%
D11*
%TO.P,D14,1,K*%
%TO.N,Net-(D14-K)*%
X196961000Y-53290000D03*
D12*
%TO.P,D14,2,A*%
%TO.N,/COL1*%
X204581000Y-53290000D03*
%TD*%
D13*
%TO.P,J1,1,Pin_1*%
%TO.N,GND*%
X201151000Y-84880000D03*
D14*
%TO.P,J1,2,Pin_2*%
%TO.N,+3.3V*%
X201151000Y-87420000D03*
%TO.P,J1,3,Pin_3*%
%TO.N,/SDA*%
X201151000Y-89960000D03*
%TO.P,J1,4,Pin_4*%
%TO.N,/SCL*%
X201151000Y-92500000D03*
%TD*%
D11*
%TO.P,D11,1,K*%
%TO.N,/COL1*%
X196961000Y-42640000D03*
D12*
%TO.P,D11,2,A*%
%TO.N,/ROW1*%
X204581000Y-42640000D03*
%TD*%
D11*
%TO.P,D16,1,K*%
%TO.N,/COL2*%
X196961000Y-60390000D03*
D12*
%TO.P,D16,2,A*%
%TO.N,Net-(D16-A)*%
X204581000Y-60390000D03*
%TD*%
D10*
%TO.P,SW3,1,1*%
%TO.N,Net-(D15-K)*%
X160201000Y-69960000D03*
%TO.P,SW3,2,2*%
%TO.N,Net-(D16-A)*%
X153851000Y-72500000D03*
%TD*%
D11*
%TO.P,D15,1,K*%
%TO.N,Net-(D15-K)*%
X196961000Y-56840000D03*
D12*
%TO.P,D15,2,A*%
%TO.N,/COL1*%
X204581000Y-56840000D03*
%TD*%
D10*
%TO.P,SW2,1,1*%
%TO.N,/COL1*%
X160201000Y-54870000D03*
%TO.P,SW2,2,2*%
X153851000Y-57410000D03*
%TD*%
%TO.P,SW10,1,1*%
%TO.N,/COL1*%
X190381000Y-54870000D03*
%TO.P,SW10,2,2*%
X184031000Y-57410000D03*
%TD*%
%TO.P,SW8,1,1*%
%TO.N,Net-(D13-K)*%
X175291000Y-69960000D03*
%TO.P,SW8,2,2*%
%TO.N,Net-(D16-A)*%
X168941000Y-72500000D03*
%TD*%
D11*
%TO.P,U1,1,GPIO26/ADC0/A0*%
%TO.N,/COL2*%
X171861000Y-84640000D03*
D12*
%TO.P,U1,2,GPIO27/ADC1/A1*%
%TO.N,/A*%
X171861000Y-87180000D03*
%TO.P,U1,3,GPIO28/ADC2/A2*%
%TO.N,/B*%
X171861000Y-89720000D03*
%TO.P,U1,4,GPIO29/ADC3/A3*%
%TO.N,Net-(D1-DIN)*%
X171861000Y-92260000D03*
%TO.P,U1,5,GPIO6/SDA*%
%TO.N,/SDA*%
X171861000Y-94800000D03*
%TO.P,U1,6,GPIO7/SCL*%
%TO.N,/SCL*%
X171861000Y-97340000D03*
%TO.P,U1,7,GPIO0/TX*%
%TO.N,/ROW2*%
X171861000Y-99880000D03*
%TO.P,U1,8,GPIO1/RX*%
%TO.N,/ROW0*%
X179481000Y-99880000D03*
%TO.P,U1,9,GPIO2/SCK*%
%TO.N,/ROW1*%
X179481000Y-97340000D03*
%TO.P,U1,10,GPIO4/MISO*%
%TO.N,/COL1*%
X179481000Y-94800000D03*
%TO.P,U1,11,GPIO3/MOSI*%
%TO.N,/COL0*%
X179481000Y-92260000D03*
%TO.P,U1,12,3V3*%
%TO.N,+3.3V*%
X179481000Y-89720000D03*
%TO.P,U1,13,GND*%
%TO.N,GND*%
X179481000Y-87180000D03*
%TO.P,U1,14,VBUS*%
%TO.N,+5V*%
X179481000Y-84640000D03*
%TD*%
D11*
%TO.P,D12,1,K*%
%TO.N,/COL1*%
X196961000Y-46190000D03*
D12*
%TO.P,D12,2,A*%
%TO.N,/ROW2*%
X204581000Y-46190000D03*
%TD*%
D11*
%TO.P,D10,1,K*%
%TO.N,/COL1*%
X196961000Y-39090000D03*
D12*
%TO.P,D10,2,A*%
%TO.N,/ROW0*%
X204581000Y-39090000D03*
%TD*%
D11*
%TO.P,D18,1,K*%
%TO.N,/COL2*%
X196961000Y-67490000D03*
D12*
%TO.P,D18,2,A*%
%TO.N,Net-(D16-A)*%
X204581000Y-67490000D03*
%TD*%
D11*
%TO.P,D13,1,K*%
%TO.N,Net-(D13-K)*%
X196961000Y-49740000D03*
D12*
%TO.P,D13,2,A*%
%TO.N,/COL1*%
X204581000Y-49740000D03*
%TD*%
D10*
%TO.P,SW11,1,1*%
%TO.N,Net-(D14-K)*%
X190381000Y-69960000D03*
%TO.P,SW11,2,2*%
%TO.N,Net-(D16-A)*%
X184031000Y-72500000D03*
%TD*%
%TO.P,SW9,1,1*%
%TO.N,/ROW1*%
X190381000Y-39780000D03*
%TO.P,SW9,2,2*%
X184031000Y-42320000D03*
%TD*%
D11*
%TO.P,D17,1,K*%
%TO.N,/COL2*%
X196961000Y-63940000D03*
D12*
%TO.P,D17,2,A*%
%TO.N,Net-(D16-A)*%
X204581000Y-63940000D03*
%TD*%
D15*
%TO.P,SW4,*%
%TO.N,*%
X197331000Y-87460000D03*
X197331000Y-92460000D03*
D16*
%TO.P,SW4,A,A*%
%TO.N,/A*%
X182831000Y-87460000D03*
D17*
%TO.P,SW4,B,B*%
%TO.N,unconnected-(SW4-PadB)*%
X182831000Y-92460000D03*
%TO.P,SW4,C,C*%
%TO.N,/B*%
X182831000Y-89960000D03*
D18*
%TO.P,SW4,MP*%
%TO.N,N/C*%
X190331000Y-84360000D03*
X190331000Y-95560000D03*
%TD*%
D19*
%TO.P,D5,1,DOUT*%
%TO.N,Net-(D4-DOUT)*%
X158446000Y-89390000D03*
%TO.P,D5,2,VSS*%
%TO.N,GND*%
X158446000Y-91140000D03*
%TO.P,D5,3,DIN*%
%TO.N,Net-(D4-DOUT)*%
X161946000Y-91140000D03*
%TO.P,D5,4,VDD*%
%TO.N,+5V*%
X161946000Y-89390000D03*
%TD*%
%TO.P,D9,1,DOUT*%
%TO.N,unconnected-(D9-DOUT-Pad1)*%
X165166000Y-94510000D03*
%TO.P,D9,2,VSS*%
%TO.N,GND*%
X165166000Y-96260000D03*
%TO.P,D9,3,DIN*%
%TO.N,Net-(D4-DOUT)*%
X168666000Y-96260000D03*
%TO.P,D9,4,VDD*%
%TO.N,+5V*%
X168666000Y-94510000D03*
%TD*%
%TO.P,D7,1,DOUT*%
%TO.N,Net-(D4-DOUT)*%
X165166000Y-84270000D03*
%TO.P,D7,2,VSS*%
%TO.N,GND*%
X165166000Y-86020000D03*
%TO.P,D7,3,DIN*%
%TO.N,Net-(D4-DOUT)*%
X168666000Y-86020000D03*
%TO.P,D7,4,VDD*%
%TO.N,+5V*%
X168666000Y-84270000D03*
%TD*%
%TO.P,D1,1,DOUT*%
%TO.N,Net-(D1-DOUT)*%
X151726000Y-84270000D03*
%TO.P,D1,2,VSS*%
%TO.N,GND*%
X151726000Y-86020000D03*
%TO.P,D1,3,DIN*%
%TO.N,Net-(D1-DIN)*%
X155226000Y-86020000D03*
%TO.P,D1,4,VDD*%
%TO.N,+5V*%
X155226000Y-84270000D03*
%TD*%
%TO.P,D3,1,DOUT*%
%TO.N,Net-(D3-DOUT)*%
X151726000Y-94510000D03*
%TO.P,D3,2,VSS*%
%TO.N,GND*%
X151726000Y-96260000D03*
%TO.P,D3,3,DIN*%
%TO.N,Net-(D2-DOUT)*%
X155226000Y-96260000D03*
%TO.P,D3,4,VDD*%
%TO.N,+5V*%
X155226000Y-94510000D03*
%TD*%
%TO.P,D8,1,DOUT*%
%TO.N,Net-(D4-DOUT)*%
X165166000Y-89390000D03*
%TO.P,D8,2,VSS*%
%TO.N,GND*%
X165166000Y-91140000D03*
%TO.P,D8,3,DIN*%
%TO.N,Net-(D4-DOUT)*%
X168666000Y-91140000D03*
%TO.P,D8,4,VDD*%
%TO.N,+5V*%
X168666000Y-89390000D03*
%TD*%
%TO.P,D4,1,DOUT*%
%TO.N,Net-(D4-DOUT)*%
X158446000Y-84270000D03*
%TO.P,D4,2,VSS*%
%TO.N,GND*%
X158446000Y-86020000D03*
%TO.P,D4,3,DIN*%
%TO.N,Net-(D3-DOUT)*%
X161946000Y-86020000D03*
%TO.P,D4,4,VDD*%
%TO.N,+5V*%
X161946000Y-84270000D03*
%TD*%
%TO.P,D6,1,DOUT*%
%TO.N,Net-(D4-DOUT)*%
X158446000Y-94510000D03*
%TO.P,D6,2,VSS*%
%TO.N,GND*%
X158446000Y-96260000D03*
%TO.P,D6,3,DIN*%
%TO.N,Net-(D4-DOUT)*%
X161946000Y-96260000D03*
%TO.P,D6,4,VDD*%
%TO.N,+5V*%
X161946000Y-94510000D03*
%TD*%
%TO.P,D2,4,VDD*%
%TO.N,+5V*%
X155226000Y-89390000D03*
%TO.P,D2,3,DIN*%
%TO.N,Net-(D1-DOUT)*%
X155226000Y-91140000D03*
%TO.P,D2,2,VSS*%
%TO.N,GND*%
X151726000Y-91140000D03*
%TO.P,D2,1,DOUT*%
%TO.N,Net-(D2-DOUT)*%
X151726000Y-89390000D03*
%TD*%
D20*
%TO.N,Net-(D2-DOUT)*%
X150525000Y-88300000D03*
X153400000Y-94300000D03*
%TO.N,Net-(D4-DOUT)*%
X163600000Y-86857058D03*
X167300000Y-86375000D03*
X159608058Y-89516000D03*
%TO.N,Net-(D3-DOUT)*%
X159641942Y-87558058D03*
X153100000Y-93400000D03*
%TO.N,+5V*%
X160800000Y-93900000D03*
X159000000Y-93500000D03*
X156300000Y-93400000D03*
X156513751Y-91675000D03*
%TO.N,Net-(D1-DOUT)*%
X150100000Y-85600000D03*
X151500000Y-87500000D03*
%TO.N,Net-(D4-DOUT)*%
X169750000Y-90226514D03*
X167208058Y-88108058D03*
X163600000Y-89500000D03*
X163500000Y-90800000D03*
X160000000Y-91100000D03*
X161200000Y-92600000D03*
%TO.N,GND*%
X156756058Y-85756058D03*
X152856058Y-85756058D03*
X167100000Y-91200000D03*
X167100000Y-89500000D03*
%TO.N,+5V*%
X169500000Y-83100000D03*
%TO.N,/COL0*%
X175980000Y-92000000D03*
X175980000Y-84015000D03*
X175980000Y-80000000D03*
%TO.N,GND*%
X171000000Y-86205997D03*
X184151000Y-85000000D03*
%TO.N,/ROW1*%
X181815883Y-66375001D03*
X188151000Y-40269000D03*
%TO.N,Net-(D13-K)*%
X179682000Y-67625000D03*
%TO.N,Net-(D16-A)*%
X176092000Y-72500000D03*
%TO.N,/A*%
X180880000Y-87333058D03*
%TO.N,/COL1*%
X178795243Y-94299000D03*
%TO.N,+5V*%
X175151000Y-85265000D03*
%TO.N,Net-(D15-K)*%
X171000000Y-67000000D03*
%TO.N,/COL1*%
X196686100Y-45418984D03*
X176092000Y-57500000D03*
%TO.N,/ROW0*%
X173130723Y-40520277D03*
X173151000Y-56785000D03*
%TO.N,Net-(D1-DIN)*%
X160000000Y-88800000D03*
X171000000Y-90694001D03*
X169750000Y-87700000D03*
%TD*%
D21*
%TO.N,Net-(D3-DOUT)*%
X161180000Y-86020000D02*
X159641942Y-87558058D01*
X161946000Y-86020000D02*
X161180000Y-86020000D01*
%TO.N,Net-(D4-DOUT)*%
X169792000Y-92266000D02*
X169792000Y-95134000D01*
X168666000Y-91140000D02*
X169792000Y-92266000D01*
X169792000Y-95134000D02*
X168666000Y-96260000D01*
%TO.N,Net-(D2-DOUT)*%
X150636000Y-88300000D02*
X151726000Y-89390000D01*
X150525000Y-88300000D02*
X150636000Y-88300000D01*
X153400000Y-94434000D02*
X153400000Y-94300000D01*
X155226000Y-96260000D02*
X153400000Y-94434000D01*
%TO.N,Net-(D4-DOUT)*%
X164851000Y-88108058D02*
X167208058Y-88108058D01*
X163600000Y-86857058D02*
X164851000Y-88108058D01*
X167655000Y-86020000D02*
X167300000Y-86375000D01*
X168666000Y-86020000D02*
X167655000Y-86020000D01*
X159482058Y-89390000D02*
X159608058Y-89516000D01*
X158446000Y-89390000D02*
X159482058Y-89390000D01*
X159197000Y-85021000D02*
X164415000Y-85021000D01*
X164415000Y-85021000D02*
X165166000Y-84270000D01*
X158446000Y-84270000D02*
X159197000Y-85021000D01*
%TO.N,Net-(D3-DOUT)*%
X152836000Y-93400000D02*
X151726000Y-94510000D01*
X153100000Y-93400000D02*
X152836000Y-93400000D01*
%TO.N,+5V*%
X167556000Y-93400000D02*
X168666000Y-94510000D01*
X163056000Y-93400000D02*
X167556000Y-93400000D01*
X161946000Y-94510000D02*
X163056000Y-93400000D01*
X161336000Y-93900000D02*
X161946000Y-94510000D01*
X160800000Y-93900000D02*
X161336000Y-93900000D01*
X156236000Y-93500000D02*
X159000000Y-93500000D01*
X155226000Y-94510000D02*
X156236000Y-93500000D01*
X156300000Y-93436000D02*
X155226000Y-94510000D01*
X156300000Y-93400000D02*
X156300000Y-93436000D01*
X156513751Y-90654751D02*
X156513751Y-91675000D01*
X156000000Y-90141000D02*
X156513751Y-90654751D01*
X156000000Y-90141000D02*
X159959000Y-90141000D01*
%TO.N,Net-(D1-DOUT)*%
X150100000Y-85600000D02*
X150396000Y-85600000D01*
X150396000Y-85600000D02*
X151726000Y-84270000D01*
X151586000Y-87500000D02*
X151500000Y-87500000D01*
X155226000Y-91140000D02*
X151586000Y-87500000D01*
%TO.N,Net-(D1-DIN)*%
X171861000Y-91761000D02*
X171861000Y-92260000D01*
X171000000Y-90900000D02*
X171861000Y-91761000D01*
X171000000Y-90694001D02*
X171000000Y-90900000D01*
%TO.N,Net-(D4-DOUT)*%
X169579486Y-90226514D02*
X168666000Y-91140000D01*
X169750000Y-90226514D02*
X169579486Y-90226514D01*
X165926116Y-89390000D02*
X167208058Y-88108058D01*
X165166000Y-89390000D02*
X165926116Y-89390000D01*
X165056000Y-89500000D02*
X165166000Y-89390000D01*
X163600000Y-89500000D02*
X165056000Y-89500000D01*
X163160000Y-91140000D02*
X163500000Y-90800000D01*
X161946000Y-91140000D02*
X163160000Y-91140000D01*
X161906000Y-91100000D02*
X161946000Y-91140000D01*
X160000000Y-91100000D02*
X161906000Y-91100000D01*
X159218000Y-94582000D02*
X161200000Y-92600000D01*
X158446000Y-94510000D02*
X158518000Y-94582000D01*
X158518000Y-94582000D02*
X159218000Y-94582000D01*
X160196000Y-96260000D02*
X158446000Y-94510000D01*
X161946000Y-96260000D02*
X160196000Y-96260000D01*
%TO.N,GND*%
X163726000Y-97700000D02*
X165166000Y-96260000D01*
X159886000Y-97700000D02*
X163726000Y-97700000D01*
X158446000Y-96260000D02*
X159886000Y-97700000D01*
X158000000Y-97700000D02*
X158446000Y-97254000D01*
X158000000Y-97900000D02*
X158000000Y-97700000D01*
X158446000Y-97254000D02*
X158446000Y-96260000D01*
X153366000Y-97900000D02*
X158000000Y-97900000D01*
X151726000Y-96260000D02*
X153366000Y-97900000D01*
X150866000Y-95400000D02*
X151726000Y-96260000D01*
X149900000Y-95400000D02*
X150866000Y-95400000D01*
X149900000Y-92966000D02*
X149900000Y-95400000D01*
X151726000Y-91140000D02*
X149900000Y-92966000D01*
X158182058Y-85756058D02*
X158446000Y-86020000D01*
X156756058Y-85756058D02*
X158182058Y-85756058D01*
X152592116Y-86020000D02*
X152856058Y-85756058D01*
X151726000Y-86020000D02*
X152592116Y-86020000D01*
X149900000Y-87100000D02*
X150646000Y-87100000D01*
X150646000Y-87100000D02*
X151726000Y-86020000D01*
X149900000Y-89314000D02*
X149900000Y-87100000D01*
X151726000Y-91140000D02*
X149900000Y-89314000D01*
X152240000Y-91140000D02*
X151726000Y-91140000D01*
X153400000Y-92300000D02*
X152240000Y-91140000D01*
X157286000Y-92300000D02*
X153400000Y-92300000D01*
X158446000Y-91140000D02*
X157286000Y-92300000D01*
X159197000Y-91891000D02*
X158446000Y-91140000D01*
X165166000Y-91140000D02*
X164415000Y-91891000D01*
X164415000Y-91891000D02*
X159197000Y-91891000D01*
X165226000Y-91200000D02*
X165166000Y-91140000D01*
X167100000Y-91200000D02*
X165226000Y-91200000D01*
X167100000Y-89100000D02*
X167100000Y-89500000D01*
X166146000Y-87000000D02*
X169200000Y-87000000D01*
X169200000Y-87000000D02*
X167100000Y-89100000D01*
X165166000Y-86020000D02*
X166146000Y-87000000D01*
%TO.N,Net-(D4-DOUT)*%
X166916000Y-86020000D02*
X165166000Y-84270000D01*
X168666000Y-86020000D02*
X166916000Y-86020000D01*
%TO.N,+5V*%
X167915000Y-90141000D02*
X168666000Y-89390000D01*
X161946000Y-89390000D02*
X162697000Y-90141000D01*
X162697000Y-90141000D02*
X167915000Y-90141000D01*
X160710000Y-89390000D02*
X161946000Y-89390000D01*
X155977000Y-90141000D02*
X156000000Y-90141000D01*
X159959000Y-90141000D02*
X160710000Y-89390000D01*
X155226000Y-89390000D02*
X155977000Y-90141000D01*
X152900000Y-87064000D02*
X155226000Y-89390000D01*
X155226000Y-84270000D02*
X152900000Y-86596000D01*
X152900000Y-86596000D02*
X152900000Y-87064000D01*
X159500000Y-83400000D02*
X156096000Y-83400000D01*
X156096000Y-83400000D02*
X155226000Y-84270000D01*
X160370000Y-84270000D02*
X159500000Y-83400000D01*
X161946000Y-84270000D02*
X160370000Y-84270000D01*
X162916000Y-83300000D02*
X161946000Y-84270000D01*
X167696000Y-83300000D02*
X162916000Y-83300000D01*
X168666000Y-84270000D02*
X167696000Y-83300000D01*
X169500000Y-83100000D02*
X169500000Y-83436000D01*
X169500000Y-83436000D02*
X168666000Y-84270000D01*
%TO.N,/COL0*%
X177651000Y-92000000D02*
X177911000Y-92260000D01*
X175980000Y-92000000D02*
X177651000Y-92000000D01*
X177911000Y-92260000D02*
X179481000Y-92260000D01*
X175980000Y-80000000D02*
X175980000Y-84015000D01*
%TO.N,*%
X198467000Y-88596000D02*
X197331000Y-87460000D01*
X202327000Y-87907116D02*
X201638116Y-88596000D01*
X201638116Y-88596000D02*
X198467000Y-88596000D01*
X202327000Y-83704000D02*
X202327000Y-87907116D01*
X201733000Y-83110000D02*
X202327000Y-83704000D01*
X190331000Y-84360000D02*
X191581000Y-83110000D01*
X191581000Y-83110000D02*
X201733000Y-83110000D01*
%TO.N,GND*%
X171151997Y-86054000D02*
X171000000Y-86205997D01*
X178355000Y-86054000D02*
X171151997Y-86054000D01*
X179481000Y-87180000D02*
X178355000Y-86054000D01*
X181661000Y-85000000D02*
X179481000Y-87180000D01*
X184151000Y-85000000D02*
X181661000Y-85000000D01*
%TO.N,/ROW1*%
X181535000Y-66094118D02*
X181815883Y-66375001D01*
X181535000Y-57889331D02*
X181535000Y-66094118D01*
X184031000Y-55393331D02*
X181535000Y-57889331D01*
X184031000Y-42320000D02*
X184031000Y-55393331D01*
X188640000Y-39780000D02*
X188151000Y-40269000D01*
X190381000Y-39780000D02*
X188640000Y-39780000D01*
X192115000Y-41514000D02*
X190381000Y-39780000D01*
X203455000Y-41514000D02*
X192115000Y-41514000D01*
X204581000Y-42640000D02*
X203455000Y-41514000D01*
%TO.N,/ROW0*%
X203455000Y-37964000D02*
X204581000Y-39090000D01*
X177107000Y-37964000D02*
X203455000Y-37964000D01*
X175291000Y-39780000D02*
X177107000Y-37964000D01*
%TO.N,Net-(D13-K)*%
X177626000Y-67625000D02*
X179682000Y-67625000D01*
X175291000Y-69960000D02*
X177626000Y-67625000D01*
%TO.N,Net-(D16-A)*%
X176092000Y-72500000D02*
X184031000Y-72500000D01*
%TO.N,/A*%
X180208000Y-88306000D02*
X180880000Y-87634000D01*
X172987000Y-88306000D02*
X180208000Y-88306000D01*
X180880000Y-87634000D02*
X180880000Y-87333058D01*
X171861000Y-87180000D02*
X172987000Y-88306000D01*
%TO.N,+3.3V*%
X199865000Y-86134000D02*
X201151000Y-87420000D01*
X181505000Y-86134000D02*
X199865000Y-86134000D01*
X181505000Y-87696000D02*
X181505000Y-86134000D01*
X179481000Y-89720000D02*
X181505000Y-87696000D01*
%TO.N,/B*%
X181945000Y-90846000D02*
X182831000Y-89960000D01*
X172987000Y-90846000D02*
X181945000Y-90846000D01*
X171861000Y-89720000D02*
X172987000Y-90846000D01*
%TO.N,/COL1*%
X179481000Y-94800000D02*
X179296243Y-94800000D01*
X179296243Y-94800000D02*
X178795243Y-94299000D01*
%TO.N,/SDA*%
X192041190Y-89960000D02*
X201151000Y-89960000D01*
X188215190Y-93786000D02*
X192041190Y-89960000D01*
X180977000Y-93674000D02*
X181089000Y-93786000D01*
X171861000Y-94800000D02*
X172987000Y-93674000D01*
X172987000Y-93674000D02*
X180977000Y-93674000D01*
X181089000Y-93786000D02*
X188215190Y-93786000D01*
%TO.N,/SCL*%
X200115000Y-93536000D02*
X201151000Y-92500000D01*
X189103000Y-93536000D02*
X200115000Y-93536000D01*
X186713000Y-95926000D02*
X189103000Y-93536000D01*
X173275000Y-95926000D02*
X186713000Y-95926000D01*
X171861000Y-97340000D02*
X173275000Y-95926000D01*
%TO.N,+5V*%
X178856000Y-85265000D02*
X175151000Y-85265000D01*
X179481000Y-84640000D02*
X178856000Y-85265000D01*
%TO.N,/COL2*%
X188134829Y-71386000D02*
X193065000Y-71386000D01*
X193065000Y-71386000D02*
X196961000Y-67490000D01*
X185465000Y-74055829D02*
X188134829Y-71386000D01*
X185465000Y-76024171D02*
X185465000Y-74055829D01*
X176849171Y-84640000D02*
X185465000Y-76024171D01*
X171861000Y-84640000D02*
X176849171Y-84640000D01*
%TO.N,Net-(D15-K)*%
X184151171Y-67000000D02*
X171000000Y-67000000D01*
X190811000Y-60340171D02*
X184151171Y-67000000D01*
X190811000Y-56840000D02*
X190811000Y-60340171D01*
X196961000Y-56840000D02*
X190811000Y-56840000D01*
%TO.N,/COL1*%
X204581000Y-53290000D02*
X204581000Y-56840000D01*
X204581000Y-49740000D02*
X204581000Y-53290000D01*
X201031000Y-46190000D02*
X204581000Y-49740000D01*
X196961000Y-46190000D02*
X201031000Y-46190000D01*
X196961000Y-45693884D02*
X196686100Y-45418984D01*
X196961000Y-46190000D02*
X196961000Y-45693884D01*
X190381000Y-54870000D02*
X190381000Y-52770000D01*
X190381000Y-52770000D02*
X196961000Y-46190000D01*
X184031000Y-57410000D02*
X187841000Y-57410000D01*
X187841000Y-57410000D02*
X190381000Y-54870000D01*
X176002000Y-57410000D02*
X176092000Y-57500000D01*
X168941000Y-57410000D02*
X176002000Y-57410000D01*
X166401000Y-54870000D02*
X168941000Y-57410000D01*
X160201000Y-54870000D02*
X166401000Y-54870000D01*
X157661000Y-57410000D02*
X160201000Y-54870000D01*
X153851000Y-57410000D02*
X157661000Y-57410000D01*
%TO.N,/ROW0*%
X171331000Y-42320000D02*
X173130723Y-40520277D01*
X168941000Y-42320000D02*
X171331000Y-42320000D01*
%TO.N,/ROW2*%
X170375000Y-65686171D02*
X170375000Y-98394000D01*
X170375000Y-98394000D02*
X171861000Y-99880000D01*
X176405000Y-53967331D02*
X176717000Y-54279331D01*
X176405000Y-42910669D02*
X176405000Y-53967331D01*
X176717000Y-54279331D02*
X176717000Y-59344171D01*
X176717000Y-59344171D02*
X170375000Y-65686171D01*
X203455000Y-45064000D02*
X204581000Y-46190000D01*
X197215000Y-45064000D02*
X203455000Y-45064000D01*
X195785000Y-43634000D02*
X197215000Y-45064000D01*
X192218331Y-43634000D02*
X195785000Y-43634000D01*
X189478331Y-40894000D02*
X192218331Y-43634000D01*
X178421669Y-40894000D02*
X189478331Y-40894000D01*
X176405000Y-42910669D02*
X178421669Y-40894000D01*
X173274331Y-39780000D02*
X176405000Y-42910669D01*
X160201000Y-39780000D02*
X173274331Y-39780000D01*
X153851000Y-42320000D02*
X157661000Y-42320000D01*
X157661000Y-42320000D02*
X160201000Y-39780000D01*
%TO.N,/ROW0*%
X171331000Y-42320000D02*
X170375000Y-43276000D01*
X170375000Y-43276000D02*
X170375000Y-54009000D01*
X170375000Y-54009000D02*
X173151000Y-56785000D01*
%TO.N,Net-(D1-DIN)*%
X155226000Y-86020000D02*
X155977000Y-86771000D01*
X155977000Y-86771000D02*
X157971000Y-86771000D01*
X157971000Y-86771000D02*
X160000000Y-88800000D01*
X169924000Y-87874000D02*
X169750000Y-87700000D01*
%TD*%
M02*
