%TF.GenerationSoftware,KiCad,Pcbnew,9.0.6*%
%TF.CreationDate,2026-03-31T16:09:58+03:00*%
%TF.ProjectId,schematic editor,73636865-6d61-4746-9963-20656469746f,rev?*%
%TF.SameCoordinates,Original*%
%TF.FileFunction,Copper,L2,Bot*%
%TF.FilePolarity,Positive*%
%FSLAX46Y46*%
G04 Gerber Fmt 4.6, Leading zero omitted, Abs format (unit mm)*
G04 Created by KiCad (PCBNEW 9.0.6) date 2026-03-31 16:09:58*
%MOMM*%
%LPD*%
G01*
G04 APERTURE LIST*
G04 Aperture macros list*
%AMRoundRect*
0 Rectangle with rounded corners*
0 $1 Rounding radius*
0 $2 $3 $4 $5 $6 $7 $8 $9 X,Y pos of 4 corners*
0 Add a 4 corners polygon primitive as box body*
4,1,4,$2,$3,$4,$5,$6,$7,$8,$9,$2,$3,0*
0 Add four circle primitives for the rounded corners*
1,1,$1+$1,$2,$3*
1,1,$1+$1,$4,$5*
1,1,$1+$1,$6,$7*
1,1,$1+$1,$8,$9*
0 Add four rect primitives between the rounded corners*
20,1,$1+$1,$2,$3,$4,$5,0*
20,1,$1+$1,$4,$5,$6,$7,0*
20,1,$1+$1,$6,$7,$8,$9,0*
20,1,$1+$1,$8,$9,$2,$3,0*%
G04 Aperture macros list end*
%TA.AperFunction,ComponentPad*%
%ADD10C,2.200000*%
%TD*%
%TA.AperFunction,ComponentPad*%
%ADD11RoundRect,0.250000X-0.550000X-0.550000X0.550000X-0.550000X0.550000X0.550000X-0.550000X0.550000X0*%
%TD*%
%TA.AperFunction,ComponentPad*%
%ADD12C,1.600000*%
%TD*%
%TA.AperFunction,ComponentPad*%
%ADD13R,1.700000X1.700000*%
%TD*%
%TA.AperFunction,ComponentPad*%
%ADD14C,1.700000*%
%TD*%
%TA.AperFunction,ComponentPad*%
%ADD15C,1.500000*%
%TD*%
%TA.AperFunction,ComponentPad*%
%ADD16R,2.000000X2.000000*%
%TD*%
%TA.AperFunction,ComponentPad*%
%ADD17C,2.000000*%
%TD*%
%TA.AperFunction,ComponentPad*%
%ADD18R,3.200000X2.000000*%
%TD*%
%TA.AperFunction,ViaPad*%
%ADD19C,0.600000*%
%TD*%
%TA.AperFunction,Conductor*%
%ADD20C,0.250000*%
%TD*%
G04 APERTURE END LIST*
D10*
%TO.P,SW7,1,1*%
%TO.N,/COL0*%
X175291000Y-54870000D03*
%TO.P,SW7,2,2*%
%TO.N,/COL1*%
X168941000Y-57410000D03*
%TD*%
%TO.P,SW1,1,1*%
%TO.N,/ROW2*%
X160201000Y-39780000D03*
%TO.P,SW1,2,2*%
X153851000Y-42320000D03*
%TD*%
%TO.P,SW6,1,1*%
%TO.N,/ROW0*%
X175291000Y-39780000D03*
%TO.P,SW6,2,2*%
X168941000Y-42320000D03*
%TD*%
D11*
%TO.P,D14,1,K*%
%TO.N,Net-(D14-K)*%
X196961000Y-53290000D03*
D12*
%TO.P,D14,2,A*%
%TO.N,/COL1*%
X204581000Y-53290000D03*
%TD*%
D13*
%TO.P,J1,1,Pin_1*%
%TO.N,GND*%
X201151000Y-84880000D03*
D14*
%TO.P,J1,2,Pin_2*%
%TO.N,+3.3V*%
X201151000Y-87420000D03*
%TO.P,J1,3,Pin_3*%
%TO.N,/SDA*%
X201151000Y-89960000D03*
%TO.P,J1,4,Pin_4*%
%TO.N,/SCL*%
X201151000Y-92500000D03*
%TD*%
D11*
%TO.P,D11,1,K*%
%TO.N,/COL1*%
X196961000Y-42640000D03*
D12*
%TO.P,D11,2,A*%
%TO.N,/ROW1*%
X204581000Y-42640000D03*
%TD*%
D11*
%TO.P,D16,1,K*%
%TO.N,/COL2*%
X196961000Y-60390000D03*
D12*
%TO.P,D16,2,A*%
%TO.N,Net-(D16-A)*%
X204581000Y-60390000D03*
%TD*%
D10*
%TO.P,SW3,1,1*%
%TO.N,Net-(D15-K)*%
X160201000Y-69960000D03*
%TO.P,SW3,2,2*%
%TO.N,Net-(D16-A)*%
X153851000Y-72500000D03*
%TD*%
D11*
%TO.P,D15,1,K*%
%TO.N,Net-(D15-K)*%
X196961000Y-56840000D03*
D12*
%TO.P,D15,2,A*%
%TO.N,/COL1*%
X204581000Y-56840000D03*
%TD*%
D10*
%TO.P,SW2,1,1*%
%TO.N,/COL1*%
X160201000Y-54870000D03*
%TO.P,SW2,2,2*%
X153851000Y-57410000D03*
%TD*%
%TO.P,SW10,1,1*%
%TO.N,/COL1*%
X190381000Y-54870000D03*
%TO.P,SW10,2,2*%
X184031000Y-57410000D03*
%TD*%
%TO.P,SW8,1,1*%
%TO.N,Net-(D13-K)*%
X175291000Y-69960000D03*
%TO.P,SW8,2,2*%
%TO.N,Net-(D16-A)*%
X168941000Y-72500000D03*
%TD*%
D11*
%TO.P,U1,1,GPIO26/ADC0/A0*%
%TO.N,/COL2*%
X171861000Y-84640000D03*
D12*
%TO.P,U1,2,GPIO27/ADC1/A1*%
%TO.N,/A*%
X171861000Y-87180000D03*
%TO.P,U1,3,GPIO28/ADC2/A2*%
%TO.N,/B*%
X171861000Y-89720000D03*
%TO.P,U1,4,GPIO29/ADC3/A3*%
%TO.N,Net-(D1-DIN)*%
X171861000Y-92260000D03*
%TO.P,U1,5,GPIO6/SDA*%
%TO.N,/SDA*%
X171861000Y-94800000D03*
%TO.P,U1,6,GPIO7/SCL*%
%TO.N,/SCL*%
X171861000Y-97340000D03*
%TO.P,U1,7,GPIO0/TX*%
%TO.N,/ROW2*%
X171861000Y-99880000D03*
%TO.P,U1,8,GPIO1/RX*%
%TO.N,/ROW0*%
X179481000Y-99880000D03*
%TO.P,U1,9,GPIO2/SCK*%
%TO.N,/ROW1*%
X179481000Y-97340000D03*
%TO.P,U1,10,GPIO4/MISO*%
%TO.N,/COL1*%
X179481000Y-94800000D03*
%TO.P,U1,11,GPIO3/MOSI*%
%TO.N,/COL0*%
X179481000Y-92260000D03*
%TO.P,U1,12,3V3*%
%TO.N,+3.3V*%
X179481000Y-89720000D03*
%TO.P,U1,13,GND*%
%TO.N,GND*%
X179481000Y-87180000D03*
%TO.P,U1,14,VBUS*%
%TO.N,+5V*%
X179481000Y-84640000D03*
%TD*%
D11*
%TO.P,D12,1,K*%
%TO.N,/COL1*%
X196961000Y-46190000D03*
D12*
%TO.P,D12,2,A*%
%TO.N,/ROW2*%
X204581000Y-46190000D03*
%TD*%
D11*
%TO.P,D10,1,K*%
%TO.N,/COL1*%
X196961000Y-39090000D03*
D12*
%TO.P,D10,2,A*%
%TO.N,/ROW0*%
X204581000Y-39090000D03*
%TD*%
D11*
%TO.P,D18,1,K*%
%TO.N,/COL2*%
X196961000Y-67490000D03*
D12*
%TO.P,D18,2,A*%
%TO.N,Net-(D16-A)*%
X204581000Y-67490000D03*
%TD*%
D11*
%TO.P,D13,1,K*%
%TO.N,Net-(D13-K)*%
X196961000Y-49740000D03*
D12*
%TO.P,D13,2,A*%
%TO.N,/COL1*%
X204581000Y-49740000D03*
%TD*%
D10*
%TO.P,SW11,1,1*%
%TO.N,Net-(D14-K)*%
X190381000Y-69960000D03*
%TO.P,SW11,2,2*%
%TO.N,Net-(D16-A)*%
X184031000Y-72500000D03*
%TD*%
%TO.P,SW9,1,1*%
%TO.N,/ROW1*%
X190381000Y-39780000D03*
%TO.P,SW9,2,2*%
X184031000Y-42320000D03*
%TD*%
D11*
%TO.P,D17,1,K*%
%TO.N,/COL2*%
X196961000Y-63940000D03*
D12*
%TO.P,D17,2,A*%
%TO.N,Net-(D16-A)*%
X204581000Y-63940000D03*
%TD*%
D15*
%TO.P,SW4,*%
%TO.N,*%
X197331000Y-87460000D03*
X197331000Y-92460000D03*
D16*
%TO.P,SW4,A,A*%
%TO.N,/A*%
X182831000Y-87460000D03*
D17*
%TO.P,SW4,B,B*%
%TO.N,unconnected-(SW4-PadB)*%
X182831000Y-92460000D03*
%TO.P,SW4,C,C*%
%TO.N,/B*%
X182831000Y-89960000D03*
D18*
%TO.P,SW4,MP*%
%TO.N,N/C*%
X190331000Y-84360000D03*
X190331000Y-95560000D03*
%TD*%
D19*
%TO.N,Net-(D2-DOUT)*%
X150525000Y-88300000D03*
X153400000Y-94300000D03*
%TO.N,Net-(D4-DOUT)*%
X163600000Y-86857058D03*
X167300000Y-86375000D03*
X159608058Y-89516000D03*
%TO.N,Net-(D3-DOUT)*%
X159641942Y-87558058D03*
X153100000Y-93400000D03*
%TO.N,+5V*%
X160800000Y-93900000D03*
X159000000Y-93500000D03*
X156300000Y-93400000D03*
X156513751Y-91675000D03*
%TO.N,Net-(D1-DOUT)*%
X150100000Y-85600000D03*
X151500000Y-87500000D03*
%TO.N,Net-(D4-DOUT)*%
X169750000Y-90226514D03*
X167208058Y-88108058D03*
X163600000Y-89500000D03*
X163500000Y-90800000D03*
X160000000Y-91100000D03*
X161200000Y-92600000D03*
%TO.N,GND*%
X156756058Y-85756058D03*
X152856058Y-85756058D03*
X167100000Y-91200000D03*
X167100000Y-89500000D03*
%TO.N,+5V*%
X169500000Y-83100000D03*
%TO.N,/COL0*%
X175980000Y-92000000D03*
X175980000Y-84015000D03*
X175980000Y-80000000D03*
%TO.N,GND*%
X171000000Y-86205997D03*
X184151000Y-85000000D03*
%TO.N,/ROW1*%
X181815883Y-66375001D03*
X188151000Y-40269000D03*
%TO.N,Net-(D13-K)*%
X179682000Y-67625000D03*
%TO.N,Net-(D16-A)*%
X176092000Y-72500000D03*
%TO.N,/A*%
X180880000Y-87333058D03*
%TO.N,/COL1*%
X178795243Y-94299000D03*
%TO.N,+5V*%
X175151000Y-85265000D03*
%TO.N,Net-(D15-K)*%
X171000000Y-67000000D03*
%TO.N,/COL1*%
X196686100Y-45418984D03*
X176092000Y-57500000D03*
%TO.N,/ROW0*%
X173130723Y-40520277D03*
X173151000Y-56785000D03*
%TO.N,Net-(D1-DIN)*%
X160000000Y-88800000D03*
X171000000Y-90694001D03*
X169750000Y-87700000D03*
%TD*%
D20*
%TO.N,Net-(D1-DIN)*%
X168815941Y-87482058D02*
X161317942Y-87482058D01*
X169033883Y-87700000D02*
X168815941Y-87482058D01*
X161317942Y-87482058D02*
X160000000Y-88800000D01*
%TO.N,GND*%
X169286000Y-93386000D02*
X167100000Y-91200000D01*
X172327405Y-93386000D02*
X169286000Y-93386000D01*
X172987000Y-92726405D02*
X172327405Y-93386000D01*
X172987000Y-89253595D02*
X172987000Y-92726405D01*
X172327405Y-88594000D02*
X172987000Y-89253595D01*
X171281810Y-88594000D02*
X172327405Y-88594000D01*
X170735000Y-88047190D02*
X171281810Y-88594000D01*
X170735000Y-86470997D02*
X170735000Y-88047190D01*
X171000000Y-86205997D02*
X170735000Y-86470997D01*
X168040000Y-85749000D02*
X169291000Y-87000000D01*
X156756058Y-85756058D02*
X156763116Y-85749000D01*
X156763116Y-85749000D02*
X168040000Y-85749000D01*
X152856058Y-85756058D02*
X156756058Y-85756058D01*
%TO.N,Net-(D2-DOUT)*%
X150525000Y-91710298D02*
X150525000Y-88300000D01*
X153114702Y-94300000D02*
X150525000Y-91710298D01*
X153400000Y-94300000D02*
X153114702Y-94300000D01*
%TO.N,Net-(D4-DOUT)*%
X167300000Y-86375000D02*
X167300000Y-87031058D01*
X163774000Y-87031058D02*
X163600000Y-86857058D01*
X167300000Y-87031058D02*
X163774000Y-87031058D01*
X159608058Y-89516000D02*
X159608058Y-90708058D01*
X159608058Y-90708058D02*
X160000000Y-91100000D01*
%TO.N,Net-(D3-DOUT)*%
X153100000Y-90100000D02*
X153100000Y-93400000D01*
X155641942Y-87558058D02*
X153100000Y-90100000D01*
X159641942Y-87558058D02*
X155641942Y-87558058D01*
%TO.N,+5V*%
X160400000Y-93500000D02*
X160800000Y-93900000D01*
X159000000Y-93500000D02*
X160400000Y-93500000D01*
X156100000Y-93400000D02*
X156300000Y-93400000D01*
X156000000Y-93500000D02*
X156100000Y-93400000D01*
X156000000Y-93700000D02*
X156000000Y-93500000D01*
X156513751Y-91675000D02*
X156513751Y-93186249D01*
X156513751Y-93186249D02*
X156300000Y-93400000D01*
%TO.N,Net-(D1-DOUT)*%
X150100000Y-86100000D02*
X150100000Y-85400000D01*
X151500000Y-87500000D02*
X150100000Y-86100000D01*
%TO.N,Net-(D4-DOUT)*%
X169900000Y-88500000D02*
X169900000Y-90076514D01*
X167600000Y-88500000D02*
X169900000Y-88500000D01*
X169900000Y-90076514D02*
X169750000Y-90226514D01*
X167208058Y-88108058D02*
X167600000Y-88500000D01*
X163500000Y-90800000D02*
X163600000Y-90700000D01*
X163600000Y-90700000D02*
X163600000Y-89500000D01*
X161200000Y-92600000D02*
X161200000Y-92300000D01*
X161200000Y-92300000D02*
X160000000Y-91100000D01*
%TO.N,GND*%
X156900000Y-85900000D02*
X156756058Y-85756058D01*
X167100000Y-89500000D02*
X167100000Y-91200000D01*
%TO.N,+5V*%
X170100000Y-82500000D02*
X169500000Y-83100000D01*
X170151000Y-82500000D02*
X170100000Y-82500000D01*
%TO.N,Net-(D16-A)*%
X204581000Y-63940000D02*
X204581000Y-60390000D01*
X204581000Y-67490000D02*
X204581000Y-63940000D01*
%TO.N,/COL2*%
X196961000Y-63940000D02*
X196961000Y-60390000D01*
X196961000Y-67490000D02*
X196961000Y-63940000D01*
%TO.N,*%
X193591000Y-95560000D02*
X190331000Y-95560000D01*
X196691000Y-92460000D02*
X193591000Y-95560000D01*
X197331000Y-92460000D02*
X196691000Y-92460000D01*
X197331000Y-87460000D02*
X197331000Y-92460000D01*
%TO.N,/COL0*%
X159260829Y-80000000D02*
X175980000Y-80000000D01*
X175980000Y-84015000D02*
X175980000Y-92000000D01*
X155285000Y-76024171D02*
X159260829Y-80000000D01*
X155285000Y-75950669D02*
X155285000Y-76024171D01*
X152425000Y-73090669D02*
X155285000Y-75950669D01*
X152425000Y-71909331D02*
X152425000Y-73090669D01*
X170375000Y-60934171D02*
X168983171Y-62326000D01*
X162008331Y-62326000D02*
X152425000Y-71909331D01*
X170375000Y-58675702D02*
X170375000Y-60934171D01*
X168983171Y-62326000D02*
X162008331Y-62326000D01*
X174180702Y-54870000D02*
X170375000Y-58675702D01*
X175291000Y-54870000D02*
X174180702Y-54870000D01*
%TO.N,*%
X197331000Y-87460000D02*
X197331000Y-88560000D01*
%TO.N,GND*%
X171000000Y-86205997D02*
X170085003Y-86205997D01*
X185098190Y-85947190D02*
X184151000Y-85000000D01*
X200083810Y-85947190D02*
X185098190Y-85947190D01*
X201151000Y-84880000D02*
X200083810Y-85947190D01*
%TO.N,Net-(D14-K)*%
X190381000Y-59870000D02*
X196961000Y-53290000D01*
X190381000Y-69960000D02*
X190381000Y-59870000D01*
%TO.N,/COL1*%
X196961000Y-39090000D02*
X196961000Y-42640000D01*
%TO.N,/ROW1*%
X179826248Y-97340000D02*
X179481000Y-97340000D01*
X184157000Y-86134000D02*
X184157000Y-93009248D01*
X181535000Y-66655884D02*
X181535000Y-83512000D01*
X181535000Y-83512000D02*
X184157000Y-86134000D01*
X184157000Y-93009248D02*
X179826248Y-97340000D01*
X181815883Y-66375001D02*
X181535000Y-66655884D01*
X186100000Y-42320000D02*
X184031000Y-42320000D01*
X188151000Y-40269000D02*
X186100000Y-42320000D01*
%TO.N,Net-(D13-K)*%
X188955000Y-54279331D02*
X193494331Y-49740000D01*
X188955000Y-54500000D02*
X188955000Y-54279331D01*
X185151000Y-58304000D02*
X188955000Y-54500000D01*
X185151000Y-62156000D02*
X185151000Y-58304000D01*
X179682000Y-67625000D02*
X185151000Y-62156000D01*
X193494331Y-49740000D02*
X196961000Y-49740000D01*
%TO.N,Net-(D16-A)*%
X199571000Y-72500000D02*
X204581000Y-67490000D01*
X184031000Y-72500000D02*
X199571000Y-72500000D01*
X168941000Y-72500000D02*
X176092000Y-72500000D01*
X153851000Y-72500000D02*
X168941000Y-72500000D01*
%TO.N,/A*%
X180880000Y-87333058D02*
X182704058Y-87333058D01*
X182704058Y-87333058D02*
X182831000Y-87460000D01*
%TO.N,/COL1*%
X176092000Y-59944826D02*
X176092000Y-57500000D01*
X179057000Y-62909826D02*
X176092000Y-59944826D01*
X179057000Y-75547826D02*
X179057000Y-62909826D01*
X178355000Y-76249826D02*
X179057000Y-75547826D01*
X178355000Y-93858757D02*
X178355000Y-76249826D01*
X178795243Y-94299000D02*
X178355000Y-93858757D01*
%TO.N,+5V*%
X175151000Y-85265000D02*
X172386000Y-82500000D01*
X172386000Y-82500000D02*
X170151000Y-82500000D01*
%TO.N,Net-(D15-K)*%
X171000000Y-67000000D02*
X163161000Y-67000000D01*
X163161000Y-67000000D02*
X160201000Y-69960000D01*
%TO.N,/COL1*%
X196686100Y-45418984D02*
X196961000Y-45144084D01*
X196961000Y-45144084D02*
X196961000Y-42640000D01*
X176092000Y-57500000D02*
X176182000Y-57410000D01*
X176182000Y-57410000D02*
X184031000Y-57410000D01*
%TO.N,/ROW0*%
X174550723Y-40520277D02*
X175291000Y-39780000D01*
X173130723Y-40520277D02*
X174550723Y-40520277D01*
X173151000Y-56785000D02*
X175127000Y-58761000D01*
X175127000Y-58761000D02*
X175127000Y-67779331D01*
X175127000Y-67779331D02*
X176717000Y-69369331D01*
X176717000Y-69369331D02*
X176717000Y-74420174D01*
X176717000Y-74420174D02*
X176605000Y-74532174D01*
X176605000Y-74532174D02*
X176605000Y-97004000D01*
X176605000Y-97004000D02*
X179481000Y-99880000D01*
%TO.N,GND*%
X170085003Y-86205997D02*
X169291000Y-87000000D01*
%TO.N,Net-(D1-DIN)*%
X171000000Y-90694001D02*
X170735000Y-90429002D01*
X170735000Y-88685000D02*
X169750000Y-87700000D01*
X169750000Y-87700000D02*
X169033883Y-87700000D01*
X170735000Y-90429002D02*
X170735000Y-88685000D01*
%TD*%
M02*
