M48
; DRILL file {KiCad 9.0.6} date 2026-03-31T16:11:50+0300
; FORMAT={-:-/ absolute / metric / decimal}
; #@! TF.CreationDate,2026-03-31T16:11:50+03:00
; #@! TF.GenerationSoftware,Kicad,Pcbnew,9.0.6
; #@! TF.FileFunction,NonPlated,1,2,NPTH
FMAT,2
METRIC
; #@! TA.AperFunction,NonPlated,NPTH,ComponentDrill
T1C1.700
; #@! TA.AperFunction,NonPlated,NPTH,ComponentDrill
T2C4.000
%
G90
G05
T1
X152.581Y-44.86
X152.581Y-59.95
X152.581Y-75.04
X162.741Y-44.86
X162.741Y-59.95
X162.741Y-75.04
X167.671Y-44.86
X167.671Y-59.95
X167.671Y-75.04
X177.831Y-44.86
X177.831Y-59.95
X177.831Y-75.04
X182.761Y-44.86
X182.761Y-59.95
X182.761Y-75.04
X192.921Y-44.86
X192.921Y-59.95
X192.921Y-75.04
T2
X157.661Y-44.86
X157.661Y-59.95
X157.661Y-75.04
X172.751Y-44.86
X172.751Y-59.95
X172.751Y-75.04
X187.841Y-44.86
X187.841Y-59.95
X187.841Y-75.04
M30
