M48
; DRILL file {KiCad 9.0.6} date 2026-03-31T16:11:50+0300
; FORMAT={-:-/ absolute / metric / decimal}
; #@! TF.CreationDate,2026-03-31T16:11:50+03:00
; #@! TF.GenerationSoftware,Kicad,Pcbnew,9.0.6
; #@! TF.FileFunction,Plated,1,2,PTH
FMAT,2
METRIC
; #@! TA.AperFunction,Plated,PTH,ViaDrill
T1C0.300
; #@! TA.AperFunction,Plated,PTH,ComponentDrill
T2C0.800
; #@! TA.AperFunction,Plated,PTH,ComponentDrill
T3C1.000
; #@! TA.AperFunction,Plated,PTH,ComponentDrill
T4C1.500
%
G90
G05
T1
X150.1Y-85.6
X150.525Y-88.3
X151.5Y-87.5
X152.856Y-85.756
X153.1Y-93.4
X153.4Y-94.3
X156.3Y-93.4
X156.514Y-91.675
X156.756Y-85.756
X159.0Y-93.5
X159.608Y-89.516
X159.642Y-87.558
X160.0Y-88.8
X160.0Y-91.1
X160.8Y-93.9
X161.2Y-92.6
X163.5Y-90.8
X163.6Y-86.857
X163.6Y-89.5
X167.1Y-89.5
X167.1Y-91.2
X167.208Y-88.108
X167.3Y-86.375
X169.5Y-83.1
X169.75Y-87.7
X169.75Y-90.227
X171.0Y-67.0
X171.0Y-86.206
X171.0Y-90.694
X173.131Y-40.52
X173.151Y-56.785
X175.151Y-85.265
X175.98Y-80.0
X175.98Y-84.015
X175.98Y-92.0
X176.092Y-57.5
X176.092Y-72.5
X178.795Y-94.299
X179.682Y-67.625
X180.88Y-87.333
X181.816Y-66.375
X184.151Y-85.0
X188.151Y-40.269
X196.686Y-45.419
T2
X171.861Y-84.64
X171.861Y-87.18
X171.861Y-89.72
X171.861Y-92.26
X171.861Y-94.8
X171.861Y-97.34
X171.861Y-99.88
X179.481Y-84.64
X179.481Y-87.18
X179.481Y-89.72
X179.481Y-92.26
X179.481Y-94.8
X179.481Y-97.34
X179.481Y-99.88
X196.961Y-39.09
X196.961Y-42.64
X196.961Y-46.19
X196.961Y-49.74
X196.961Y-53.29
X196.961Y-56.84
X196.961Y-60.39
X196.961Y-63.94
X196.961Y-67.49
X204.581Y-39.09
X204.581Y-42.64
X204.581Y-46.19
X204.581Y-49.74
X204.581Y-53.29
X204.581Y-56.84
X204.581Y-60.39
X204.581Y-63.94
X204.581Y-67.49
T3
X182.831Y-87.46
X182.831Y-89.96
X182.831Y-92.46
X197.331Y-87.46
X197.331Y-92.46
X201.151Y-84.88
X201.151Y-87.42
X201.151Y-89.96
X201.151Y-92.5
T4
X153.851Y-42.32
X153.851Y-57.41
X153.851Y-72.5
X160.201Y-39.78
X160.201Y-54.87
X160.201Y-69.96
X168.941Y-42.32
X168.941Y-57.41
X168.941Y-72.5
X175.291Y-39.78
X175.291Y-54.87
X175.291Y-69.96
X184.031Y-42.32
X184.031Y-57.41
X184.031Y-72.5
X190.381Y-39.78
X190.381Y-54.87
X190.381Y-69.96
T4
G00X189.681Y-84.36
M15
G01X190.981Y-84.36
M16
G05
G00X189.681Y-95.56
M15
G01X190.981Y-95.56
M16
G05
M30
